<?xml version="1.0" encoding="UTF-8" standalone="no"?>
<!-- Created with Inkscape (http://www.inkscape.org/) -->

<svg
   xmlns:dc="http://purl.org/dc/elements/1.1/"
   xmlns:cc="http://creativecommons.org/ns#"
   xmlns:rdf="http://www.w3.org/1999/02/22-rdf-syntax-ns#"
   xmlns:svg="http://www.w3.org/2000/svg"
   xmlns="http://www.w3.org/2000/svg"
   xmlns:sodipodi="http://sodipodi.sourceforge.net/DTD/sodipodi-0.dtd"
   xmlns:inkscape="http://www.inkscape.org/namespaces/inkscape"
   width="167.24164mm"
   height="102.02789mm"
   viewBox="0 0 167.24164 102.02788"
   version="1.1"
   id="svg8"
   inkscape:export-filename="D:\Documents\coding_ground\misc\IndustryWeek2020\image.png"
   inkscape:export-xdpi="206.123"
   inkscape:export-ydpi="206.123"
   inkscape:version="0.92.4 (5da689c313, 2019-01-14)"
   sodipodi:docname="drawing.svg">
  <defs
     id="defs2" />
  <sodipodi:namedview
     id="base"
     pagecolor="#ffffff"
     bordercolor="#666666"
     borderopacity="1.0"
     inkscape:pageopacity="0.0"
     inkscape:pageshadow="2"
     inkscape:zoom="1.4"
     inkscape:cx="327.82578"
     inkscape:cy="213.98803"
     inkscape:document-units="mm"
     inkscape:current-layer="layer1"
     showgrid="false"
     inkscape:window-width="1278"
     inkscape:window-height="1368"
     inkscape:window-x="-7"
     inkscape:window-y="0"
     inkscape:window-maximized="0" />
  <metadata
     id="metadata5">
    <rdf:RDF>
      <cc:Work
         rdf:about="">
        <dc:format>image/svg+xml</dc:format>
        <dc:type
           rdf:resource="http://purl.org/dc/dcmitype/StillImage" />
        <dc:title></dc:title>
      </cc:Work>
    </rdf:RDF>
  </metadata>
  <g
     inkscape:label="Layer 1"
     inkscape:groupmode="layer"
     id="layer1"
     transform="translate(-16.33798,-9.1852565)">
    <rect
       style="opacity:1;vector-effect:none;fill:#04b9b6;fill-opacity:0.32160806;stroke:#000000;stroke-width:0.88454914;stroke-linecap:butt;stroke-linejoin:miter;stroke-miterlimit:4;stroke-dasharray:none;stroke-dashoffset:0;stroke-opacity:1"
       id="rect815"
       width="166.35709"
       height="101.14333"
       x="16.780254"
       y="9.6275311" />
    <path
       style="fill:#65ff00;fill-opacity:1;fill-rule:evenodd;stroke:#00dc00;stroke-width:0.22507031px;stroke-linecap:butt;stroke-linejoin:miter;stroke-opacity:1"
       d="m 33.577531,74.309921 c 0,0 -13.363476,0 -8.819895,12.957943 4.543582,12.957966 14.165285,27.076316 32.874152,18.760026 18.708867,-8.316286 33.675933,-15.858984 33.675933,-15.858984 0,0 21.381509,3.674659 10.156199,-12.377748 C 90.238647,61.738791 91.574988,60.384979 91.574988,60.384979 L 81.151505,47.233643 44.001042,53.61591 Z"
       id="path821"
       inkscape:connector-curvature="0" />
    <path
       style="fill:#000000;fill-opacity:1;fill-rule:evenodd;stroke:#000000;stroke-width:0.26458332px;stroke-linecap:butt;stroke-linejoin:miter;stroke-opacity:1"
       d="m 141.15285,27.530908 c 0,0 -16.03617,-7.216277 -18.4416,1.069078 -2.40543,8.285355 -3.4745,13.630746 4.81085,13.096206 8.28536,-0.534538 -6.41447,2.939965 6.41447,9.354434 12.82894,6.414468 4.27631,7.216277 12.2944,2.405425 8.01808,-4.81085 14.43255,-9.087163 13.09621,-14.699824 -1.33635,-5.612659 18.97613,-9.087163 4.54358,-11.759858 -14.43256,-2.672696 -22.71791,0.534539 -22.71791,0.534539 z"
       id="path823"
       inkscape:connector-curvature="0" />
    <path
       style="fill:#0000ff;fill-opacity:1;fill-rule:evenodd;stroke:#ff0000;stroke-width:0.565;stroke-linecap:butt;stroke-linejoin:miter;stroke-miterlimit:4;stroke-dasharray:none;stroke-opacity:1"
       d="m 163.06092,78.009809 -0.58874,-4.158829 3.44947,2.291903 4.40274,7.351504 -2.76861,1.869104 z"
       id="path825"
       inkscape:connector-curvature="0"
       sodipodi:nodetypes="cccccc" />
    <ellipse
       style="opacity:1;vector-effect:none;fill:#a900f9;fill-opacity:1;stroke:#ff0000;stroke-width:0.56499994;stroke-linecap:butt;stroke-linejoin:miter;stroke-miterlimit:4;stroke-dasharray:none;stroke-dashoffset:0;stroke-opacity:1"
       id="path827"
       cx="54.419086"
       cy="22.890797"
       rx="7.2760415"
       ry="1.4646577" />
    <path
       style="fill:#00a2b2;fill-opacity:1;fill-rule:evenodd;stroke:#f70000;stroke-width:0.26458332px;stroke-linecap:butt;stroke-linejoin:miter;stroke-opacity:1"
       d="m 77.488267,52.421431 2.707041,9.038765 2.950669,-0.4733 c 0,0 2.478931,0.92446 1.460649,1.800125 -1.018282,0.875659 -1.142443,0.684099 -1.142443,0.684099 l -2.546705,0.419595 2.471392,9.034063 -1.682607,-0.08783 -2.671863,-8.607155 -9.338745,1.804912 0.317082,2.550882 -2.213391,0.156681 -1.004269,-6.386473 1.915944,-0.525195 0.393702,2.660379 9.393613,-2.658835 -2.333684,-8.973819 z"
       id="path829"
       inkscape:connector-curvature="0"
       sodipodi:nodetypes="cccccccccccccccccc" />
    <path
       sodipodi:type="star"
       style="opacity:1;vector-effect:none;fill:#00a2b2;fill-opacity:1;stroke:#f70000;stroke-width:0.56499994;stroke-linecap:butt;stroke-linejoin:miter;stroke-miterlimit:4;stroke-dasharray:none;stroke-dashoffset:0;stroke-opacity:1"
       id="path831"
       sodipodi:sides="5"
       sodipodi:cx="118.20256"
       sodipodi:cy="21.993105"
       sodipodi:r1="2.6255064"
       sodipodi:r2="1.3127532"
       sodipodi:arg1="1.0427219"
       sodipodi:arg2="1.6710404"
       inkscape:flatsided="false"
       inkscape:rounded="0"
       inkscape:randomized="0"
       d="m 119.52548,24.260962 -1.4543,-0.961694 -1.61668,0.652812 0.46523,-1.680294 -1.12044,-1.335825 1.74181,-0.07678 0.92421,-1.478397 0.61128,1.632839 1.69163,0.422125 -1.36402,1.085934 z"
       inkscape:transform-center-x="-0.081193384"
       inkscape:transform-center-y="-0.17223461" />
    <path
       sodipodi:type="star"
       style="opacity:1;vector-effect:none;fill:#00a2b2;fill-opacity:1;stroke:#f70000;stroke-width:0.565;stroke-linecap:butt;stroke-linejoin:miter;stroke-miterlimit:4;stroke-dasharray:none;stroke-dashoffset:0;stroke-opacity:1"
       id="path831-1"
       sodipodi:sides="5"
       sodipodi:cx="132.8663"
       sodipodi:cy="57.000019"
       sodipodi:r1="2.6255064"
       sodipodi:r2="1.3127532"
       sodipodi:arg1="1.0427219"
       sodipodi:arg2="1.6710404"
       inkscape:flatsided="false"
       inkscape:rounded="0"
       inkscape:randomized="0"
       d="m 134.18922,59.267876 -1.45429,-0.961694 -1.61668,0.652812 0.46522,-1.680294 -1.12044,-1.335825 1.74181,-0.07678 0.92421,-1.478398 0.61128,1.632839 1.69164,0.422125 -1.36403,1.085934 z"
       inkscape:transform-center-x="-0.081193384"
       inkscape:transform-center-y="-0.17223461" />
    <path
       sodipodi:type="star"
       style="opacity:1;vector-effect:none;fill:#00a2b2;fill-opacity:1;stroke:#f70000;stroke-width:0.565;stroke-linecap:butt;stroke-linejoin:miter;stroke-miterlimit:4;stroke-dasharray:none;stroke-dashoffset:0;stroke-opacity:1"
       id="path831-3"
       sodipodi:sides="5"
       sodipodi:cx="170.26234"
       sodipodi:cy="25.608997"
       sodipodi:r1="2.6255064"
       sodipodi:r2="1.3127532"
       sodipodi:arg1="1.0427219"
       sodipodi:arg2="1.6710404"
       inkscape:flatsided="false"
       inkscape:rounded="0"
       inkscape:randomized="0"
       d="m 171.58526,27.876854 -1.45429,-0.961694 -1.61668,0.652812 0.46522,-1.680294 -1.12044,-1.335825 1.74182,-0.07678 0.92421,-1.478397 0.61127,1.632838 1.69164,0.422125 -1.36403,1.085934 z"
       inkscape:transform-center-x="-0.081193384"
       inkscape:transform-center-y="-0.17223461" />
  </g>
</svg>
